<svg id="SvgjsSvg1006" width="288" height="288" xmlns="http://www.w3.org/2000/svg" version="1.1" xmlns:xlink="http://www.w3.org/1999/xlink" xmlns:svgjs="http://svgjs.com/svgjs"><defs id="SvgjsDefs1007"></defs><g id="SvgjsG1008" transform="matrix(1,0,0,1,0,0)"><svg xmlns="http://www.w3.org/2000/svg" viewBox="0 0 652.813 653.333" width="288" height="288"><path fill="#ffffff" d="m 4280.23,2289.36 178.19,-1240.62 -2831.32,14.47 c -4.96,-5.93 -9.86,-11.84 -14.85,-17.84 -4.93,-5.88 -9.89,-11.79 -14.79,-17.76 -4.96,-5.94 -9.81,-11.88 -14.77,-17.82 -4.87,-5.98 -9.8,-11.962 -14.64,-17.938 -4.38,-5.5 -8.79,-10.973 -13.2,-16.481 -4.41,-5.473 -8.79,-11 -13.17,-16.492 -4.38,-5.52 -8.73,-11.059 -13.11,-16.59 -4.32,-5.48 -8.73,-11.051 -13.02,-16.559 l 3057.32,-55.402 -211.93,1426.122 -80.71,-7.09" transform="matrix(.13333 0 0 -.13333 0 653.333)" class="svgShape color000000-0 selectable"></path><path fill="#ffffff" d="m 1836.15,1306.34 c -10.32,-11.51 -20.62,-23.13 -30.91,-34.71 -10.21,-11.53 -20.42,-23.22 -30.69,-34.85 -10.15,-11.69 -20.36,-23.32 -30.57,-35.09 l 2509.47,19.31 -160.27,1202.27 -19.32,145.52 -104.87,-11.57 148.41,-1170.71 -2250.27,-45.67 c -10.38,-11.48 -20.74,-22.95 -30.98,-34.5" transform="matrix(.13333 0 0 -.13333 0 653.333)" class="svgShape color000000-1 selectable"></path><path fill="#ffffff" d="M3750.21 2814.75l-160.79-21.25c-16.56-10.46-33.07-21.03-49.63-31.66-16.41-10.54-32.83-21.21-49.22-31.86-16.44-10.68-32.74-21.42-49.13-32.23-16.27-10.78-32.6-21.7-48.81-32.68-21.9-14.8-43.83-29.65-65.55-44.6-21.78-15-43.48-30.07-65.17-45.29-21.55-15.22-43.1-30.6-64.62-46.02-21.46-15.38-42.87-30.97-64.24-46.61-18.83-13.82-37.56-27.68-56.38-41.63-18.66-13.89-37.42-27.84-56.01-41.98-18.59-14.08-37.21-28.25-55.69-42.43-18.5-14.33-36.98-28.65-55.36-43.12-11.96-9.38-23.93-18.91-35.88-28.44-11.87-9.48-23.79-18.98-35.71-28.57-11.8-9.54-23.75-19.1-35.64-28.71-11.81-9.59-23.67-19.23-35.42-28.87-4.4-3.7-8.93-7.33-13.31-11.14-4.38-3.7-8.87-7.46-13.25-11.24-4.47-3.78-8.91-7.55-13.31-11.24-4.5-3.81-8.97-7.48-13.43-11.27-15-12.44-29.93-25.01-44.81-37.56-14.85-12.76-29.73-25.33-44.49-38.09-14.8-12.78-29.56-25.55-44.27-38.44-14.76-12.78-29.46-25.69-44.17-38.64-46.55-41.13-92.78-82.88-138.69-125.21-45.77-42.31-91.1-85.09-136.09-128.45-44.87-43.33-89.36-87.16-133.41-131.52-43.94-44.36-87.48-89.27-130.61-134.72l1899.3 62.14-130.37 1133.62-15.84 137.71M1849.35 919.68l-333.8 6.05v0c.27.34 45.22 57.329 111.55 137.48v0l328.99-1.68c-38.19-48.97-73.84-96.331-106.74-141.85M1743.98 1201.69c10.21 11.77 20.42 23.4 30.57 35.09 10.1 11.44 20.15 22.94 30.19 34.29 17.51 19.29 34.56 37.77 62.39 69.77v0l324.96 6.6c-42.15-48.63-82.63-96.43-121.32-143.24l-326.79-2.51" transform="matrix(.13333 0 0 -.13333 0 653.333)" class="svgShape color000000-2 selectable"></path><path fill="#ffffff" d="m 1997.12,1481.28 c 43.13,45.45 86.67,90.36 130.61,134.72 44.05,44.36 88.54,88.19 133.41,131.52 44.99,43.36 90.32,86.14 136.09,128.45 45.91,42.33 92.14,84.08 138.69,125.21 14.71,12.95 29.41,25.86 44.17,38.64 14.71,12.89 29.47,25.66 44.27,38.44 14.76,12.76 29.64,25.33 44.49,38.09 14.88,12.55 29.81,25.12 44.81,37.56 4.46,3.79 8.93,7.46 13.43,11.27 4.4,3.69 8.84,7.46 13.31,11.24 4.38,3.78 8.87,7.54 13.25,11.24 4.38,3.81 8.91,7.44 13.31,11.14 11.75,9.64 23.61,19.28 35.42,28.87 11.89,9.61 23.84,19.17 35.64,28.71 11.92,9.59 23.84,19.09 35.71,28.57 11.95,9.53 23.92,19.06 35.88,28.44 18.38,14.47 36.86,28.79 55.36,43.12 18.48,14.18 37.1,28.35 55.69,42.43 18.59,14.14 37.35,28.09 56.01,41.98 18.82,13.95 37.55,27.81 56.38,41.63 21.37,15.64 42.78,31.23 64.24,46.61 21.52,15.42 43.07,30.8 64.62,46.02 21.69,15.22 43.39,30.29 65.17,45.29 21.72,14.95 43.65,29.8 65.55,44.6 16.21,10.98 32.54,21.9 48.81,32.68 16.39,10.81 32.69,21.55 49.13,32.23 16.39,10.65 32.81,21.32 49.22,31.86 16.56,10.63 33.07,21.2 49.63,31.66 l 160.79,21.25 C 3263.46,2451.36 2732.48,1948.56 2319.91,1491.84 l -322.79,-10.56" transform="matrix(.13333 0 0 -.13333 0 653.333)" class="svgShape color000000-3 selectable"></path><path fill="#ffffff" d="m 4614.87,3566.81 c -93.05,-34.69 -186.44,-70.8 -279.97,-108.29 -92.38,-36.99 -184.9,-75.29 -277.25,-114.81 -91.22,-39.13 -182.34,-79.38 -273.13,-120.87 -2.37,-1 -4.67,-2.04 -7.04,-3.15 -2.29,-1.07 -4.64,-2.2 -7.02,-3.32 -2.32,-1.12 -4.67,-2.22 -6.96,-3.36 -2.38,-1.11 -4.67,-2.21 -6.99,-3.34 -73.7,-33.86 -147.22,-68.53 -220.25,-103.97 -72.46,-35.13 -144.59,-71.02 -216.29,-107.59 -71.05,-36.26 -141.71,-73.27 -211.81,-110.97 -69.58,-37.36 -138.61,-75.35 -207.05,-114.04 -24.42,-13.82 -48.76,-27.73 -73.06,-41.71 -24.16,-13.89 -48.26,-27.86 -72.28,-41.93 -24.01,-14.11 -47.83,-28.26 -71.61,-42.5 -23.7,-14.18 -47.33,-28.44 -70.86,-42.84 -20.44,-12.38 -40.77,-24.91 -61.11,-37.44 -20.21,-12.51 -40.43,-25.09 -60.59,-37.78 -20.09,-12.61 -40.13,-25.24 -60.09,-38.01 -19.87,-12.77 -39.77,-25.49 -59.54,-38.4 -13.2,-8.57 -26.31,-17.15 -39.48,-25.8 -13.11,-8.71 -26.22,-17.33 -39.33,-26.04 -13.02,-8.63 -26.04,-17.33 -39.06,-26.02 -13,-8.7 -25.9,-17.43 -38.87,-26.25 -4.38,-3.06 -8.88,-6.12 -13.31,-9.2 -4.41,-3.11 -8.85,-6.2 -13.37,-9.26 -4.41,-3.06 -8.88,-6.12 -13.31,-9.24 -4.44,-3.03 -8.82,-6.1 -13.29,-9.13 -15.89,-11.04 -31.67,-22.07 -47.39,-33.17 -15.66,-11.06 -31.35,-22.17 -46.93,-33.35 -15.57,-11.08 -31.15,-22.25 -46.58,-33.5 -15.46,-11.19 -30.86,-22.41 -46.26,-33.7 -101.51,-74.7 -200.7,-151.28 -297.22,-229.96 -95.52,-77.89 -188.62,-157.91 -278.76,-240.03 -89.39,-81.37 -176.08,-165.13 -259.81,-251.04 -83.15,-85.43 -163.465,-173.21 -240.617,-263.66 -7.047,-8.19 -14.008,-16.38 -20.996,-24.71 -6.961,-8.16 -13.926,-16.44 -20.856,-24.71 -6.871,-8.28 -13.804,-16.59 -20.648,-24.84 -6.848,-8.35 -13.606,-16.59 -20.422,-24.92 -5.219,-6.32 -10.438,-12.71 -15.488,-19.14 -5.192,-6.4 -10.325,-12.8 -15.426,-19.24 -5.106,-6.42 -10.27,-12.8 -15.285,-19.2 -5.02,-6.44 -10.035,-12.91 -15.082,-19.33 -2.785,3.35 -5.512,6.58 -8.239,9.83 -2.753,3.28 -5.421,6.45 -8.093,9.63 -2.696,3.08 -5.364,6.27 -8.004,9.31 -2.641,3.15 -5.223,6.24 -7.832,9.32 -26.129,30.91 -50.637,59.27 -73.782,85.71 -22.972,26.19 -44.64,50.52 -65.32,73.54 -20.59,22.83 -40.281,44.36 -59.254,65.05 -18.937,20.57 -37.211,40.42 -55.164,60 -4.726,5 -9.426,10.09 -14.062,15.21 -4.672,5 -9.282,10.04 -13.926,15.12 -4.582,5.07 -9.223,10.11 -13.805,15.19 -4.551,5.06 -9.109,10.11 -13.601,15.27 -19.985,21.82 -39.852,44.14 -60.184,67.43 -20.242,23.15 -40.836,47.38 -62.301,73.12 -21.168,25.7 -43.183,52.89 -66.332,82.46 -22.937,29.26 -46.953,60.66 -72.39,94.9 -11.485,15.4 -23.289,31.38 -35.325,47.93 -12.007,16.54 -24.3941,33.58 -37.0113,51.33 -12.5274,17.62 -25.4922,35.88 -38.7774,54.85 C 27.5234,1891.09 13.9492,1910.6 0,1930.83 27.4961,1842 53.6289,1758.32 78.832,1678.88 c 25.609,-80.79 50.148,-157.01 73.871,-229.58 24.102,-73.71 47.422,-143.56 70.102,-210.39 23.027,-68 45.562,-132.86 67.925,-195.76 5.196,-14.64 10.329,-29.16 15.516,-43.662 5.192,-14.468 10.328,-28.847 15.52,-43.25 5.222,-14.316 10.414,-28.519 15.601,-42.758 5.164,-14.269 10.41,-28.511 15.633,-42.648 2.352,-6.453 4.844,-12.973 7.195,-19.492 2.407,-6.531 4.871,-13.07 7.278,-19.598 2.41,-6.512 4.843,-13.062 7.308,-19.613 2.41,-6.527 4.875,-13.168 7.34,-19.68 2.551,-6.75 5.074,-13.539 7.625,-20.179 2.582,-6.809 5.106,-13.571 7.719,-20.36 2.582,-6.781 5.16,-13.531 7.715,-20.308 2.609,-6.793 5.16,-13.563 7.8,-20.411 1.86,-4.89 3.684,-9.66 5.54,-14.57 1.972,-4.871 3.769,-9.812 5.714,-14.652 1.86,-4.93 3.797,-9.758 5.711,-14.617 1.86,-4.973 3.801,-9.813 5.746,-14.821 0.782,-2.062 1.563,-4.16 2.379,-6.261 0.785,-2.059 1.594,-4.161 2.434,-6.239 0.785,-2.07 1.598,-4.179 2.379,-6.261 0.84,-2.09 1.68,-4.129 2.465,-6.282 2.668,-6.656 5.25,-13.328 7.863,-20.027 2.605,-6.699 5.246,-13.461 7.887,-20.172 2.636,-6.769 5.281,-13.519 8.004,-20.269 2.64,-6.782 5.281,-13.559 7.918,-20.5 l -1.825,-6.872 4.032,1.571 c 15.863,-39.969 32.019,-80.52 48.781,-122.047 16.82,-41.883 34.254,-84.781 52.383,-129.051 18.183,-44.68 37.152,-90.691 56.902,-138.68 C 657.25,103 678.07,52.7109 699.883,0 c 36.484,66.3906 73.699,131.922 111.664,196.512 37.937,64.578 76.539,128.277 115.898,191.129 39.36,62.879 79.465,124.941 120.135,186.129 40.81,61.242 82.16,121.671 124.31,181.312 0.87,1.168 1.68,2.387 2.52,3.617 0.87,1.231 1.74,2.473 2.61,3.699 0.93,1.133 1.77,2.372 2.61,3.602 0.87,1.199 1.74,2.461 2.52,3.602 8.18,11.48 16.27,22.898 24.45,34.269 8.21,11.438 16.28,22.77 24.57,34.051 8.18,11.367 16.36,22.699 24.59,33.879 8.24,11.269 16.57,22.531 24.8,33.781 7.17,9.668 14.27,19.277 21.44,28.777 7.16,9.61 14.38,19.129 21.55,28.641 7.16,9.512 14.47,18.98 21.61,28.449 7.3,9.431 14.52,18.911 21.75,28.411 1.3,1.71 2.66,3.5 3.97,5.29 1.28,1.66 2.58,3.38 3.92,5.18 1.27,1.7 2.55,3.44 3.85,5.12 1.34,1.73 2.67,3.41 3.98,5.06 8.7,11.39 17.43,22.6 26.22,34 8.78,11.16 17.57,22.41 26.42,33.57 8.9,11.26 17.72,22.36 26.6,33.52 8.93,11.2 17.89,22.24 26.82,33.24 8.99,11.2 18.01,22.39 27.03,33.42 9.05,11.17 18.13,22.3 27.21,33.33 9.08,11.11 18.19,22.11 27.35,33.18 9.14,10.97 18.27,22 27.52,32.98 65.15,77.53 131.48,153.46 198.85,227.93 67.61,74.66 136.32,147.96 206.1,219.74 70.07,72.05 141.13,142.7 213.18,211.7 72.51,69.49 145.94,137.46 220.22,203.91 14.33,12.79 28.72,25.56 43.1,38.25 14.39,12.71 28.77,25.38 43.22,37.95 14.53,12.62 28.97,25.15 43.59,37.62 14.53,12.52 29.06,24.94 43.68,37.24 4.41,3.69 8.82,7.43 13.11,11.15 4.32,3.69 8.73,7.41 13.02,11.14 4.32,3.73 8.67,7.47 13.02,11.17 4.27,3.75 8.62,7.36 12.94,10.96 11.51,9.61 23.08,19.2 34.66,28.74 11.54,9.43 23.11,18.93 34.74,28.41 11.6,9.44 23.23,18.86 34.92,28.22 11.63,9.35 23.32,18.78 35.01,28.12 18.01,14.31 36.05,28.58 54.12,42.62 18.07,14.22 36.23,28.18 54.35,42.13 18.19,14.01 36.46,27.81 54.65,41.65 18.27,13.78 36.63,27.51 54.96,41.24 20.82,15.52 41.71,30.9 62.64,46.22 21.01,15.3 42.03,30.51 63.06,45.55 21.11,15.11 42.32,30.09 63.49,44.95 21.23,14.93 42.52,29.62 63.86,44.32 40.29,27.67 80.66,54.95 121.12,81.78 40.72,26.93 81.53,53.42 122.48,79.43 41.04,26.11 82.32,51.84 123.65,77.01 41.62,25.22 83.29,50.05 125.06,74.37 91.88,53.45 184.2,104.61 276.78,153.21 93.62,49.14 187.54,95.83 281.48,139.78 95.04,44.39 190.23,86.1 285.31,124.93 96.2,39.19 192.29,75.49 287.97,108.62 -93.24,-32.22 -187.1,-65.88 -281.27,-101" transform="matrix(.13333 0 0 -.13333 0 653.333)" class="svgShape color000000-4 selectable"></path><path fill="#ffffff" d="m 699.883,0 c -0.055,0.128906 -0.11,0.261719 -0.164,0.390625 0.054,-0.128906 0.109,-0.261719 0.164,-0.390625 36.484,66.3906 73.699,131.922 111.664,196.512 37.937,64.578 76.539,128.277 115.898,191.129 39.36,62.879 79.465,124.941 120.135,186.129 40.81,61.242 82.16,121.671 124.31,181.312 0.87,1.168 1.68,2.387 2.52,3.617 0.87,1.231 1.74,2.473 2.61,3.699 0.93,1.133 1.77,2.372 2.61,3.602 0.87,1.199 1.74,2.461 2.52,3.602 8.18,11.48 16.27,22.898 24.45,34.269 8.21,11.438 16.28,22.77 24.57,34.051 8.18,11.367 16.36,22.699 24.59,33.879 8.24,11.269 16.57,22.531 24.8,33.781 7.17,9.668 14.27,19.277 21.44,28.777 7.16,9.61 14.38,19.129 21.55,28.641 7.16,9.512 14.47,18.98 21.61,28.449 7.3,9.431 14.52,18.911 21.75,28.411 1.3,1.71 2.66,3.5 3.97,5.29 1.28,1.66 2.58,3.38 3.92,5.18 1.27,1.7 2.55,3.44 3.85,5.12 1.34,1.73 2.67,3.41 3.98,5.06 8.7,11.39 17.43,22.6 26.22,34 8.78,11.16 17.57,22.41 26.42,33.57 8.9,11.26 17.72,22.36 26.6,33.52 8.93,11.2 17.89,22.24 26.82,33.24 8.99,11.2 18.01,22.39 27.03,33.42 9.05,11.17 18.13,22.3 27.21,33.33 9.08,11.11 18.19,22.11 27.35,33.18 9.14,10.97 18.27,22 27.52,32.98 65.15,77.53 131.48,153.46 198.85,227.93 67.61,74.66 136.32,147.96 206.1,219.74 70.07,72.05 141.13,142.7 213.18,211.7 72.51,69.49 145.94,137.46 220.22,203.91 14.33,12.79 28.72,25.56 43.1,38.25 14.39,12.71 28.77,25.38 43.22,37.95 14.53,12.62 28.97,25.15 43.59,37.62 14.53,12.52 29.06,24.94 43.68,37.24 4.41,3.69 8.82,7.43 13.11,11.15 4.32,3.69 8.73,7.41 13.02,11.14 4.32,3.73 8.67,7.47 13.02,11.17 4.27,3.75 8.62,7.36 12.94,10.96 11.51,9.61 23.08,19.2 34.66,28.74 11.54,9.43 23.11,18.93 34.74,28.41 11.6,9.44 23.23,18.86 34.92,28.22 11.63,9.35 23.32,18.78 35.01,28.12 18.01,14.31 36.05,28.58 54.12,42.62 18.07,14.22 36.23,28.18 54.35,42.13 18.19,14.01 36.46,27.81 54.65,41.65 18.27,13.78 36.63,27.51 54.96,41.24 20.82,15.52 41.71,30.9 62.64,46.22 21.01,15.3 42.03,30.51 63.06,45.55 21.11,15.11 42.32,30.09 63.49,44.95 21.23,14.93 42.52,29.62 63.86,44.32 40.29,27.67 80.66,54.95 121.12,81.78 40.72,26.93 81.53,53.42 122.48,79.43 41.04,26.11 82.32,51.84 123.65,77.01 41.62,25.22 83.29,50.05 125.06,74.37 91.88,53.45 184.2,104.61 276.78,153.21 93.62,49.14 187.54,95.83 281.48,139.78 95.04,44.39 190.23,86.1 285.31,124.93 96.2,39.19 192.29,75.49 287.97,108.62 v 0 c -95.68,-33.13 -191.77,-69.43 -287.97,-108.62 -95.08,-38.83 -190.27,-80.54 -285.31,-124.93 -93.94,-43.95 -187.86,-90.64 -281.48,-139.78 -92.58,-48.6 -184.9,-99.76 -276.78,-153.21 -41.77,-24.32 -83.44,-49.15 -125.06,-74.37 -41.33,-25.17 -82.61,-50.9 -123.65,-77.01 -40.95,-26.01 -81.76,-52.5 -122.48,-79.43 -40.46,-26.83 -80.83,-54.11 -121.12,-81.78 -21.34,-14.7 -42.63,-29.39 -63.86,-44.32 -21.17,-14.86 -42.38,-29.84 -63.49,-44.95 -21.03,-15.04 -42.05,-30.25 -63.06,-45.55 -20.93,-15.32 -41.82,-30.7 -62.64,-46.22 -18.33,-13.73 -36.69,-27.46 -54.96,-41.24 -18.19,-13.84 -36.46,-27.64 -54.65,-41.65 -18.12,-13.95 -36.28,-27.91 -54.35,-42.13 -18.07,-14.04 -36.11,-28.31 -54.12,-42.62 -11.69,-9.34 -23.38,-18.77 -35.01,-28.12 -11.69,-9.36 -23.32,-18.78 -34.92,-28.22 -11.63,-9.48 -23.2,-18.98 -34.74,-28.41 -11.58,-9.54 -23.15,-19.13 -34.66,-28.74 -4.32,-3.6 -8.67,-7.21 -12.94,-10.96 -4.35,-3.7 -8.7,-7.44 -13.02,-11.17 -4.29,-3.73 -8.7,-7.45 -13.02,-11.14 -4.29,-3.72 -8.7,-7.46 -13.11,-11.15 -14.62,-12.3 -29.15,-24.72 -43.68,-37.24 -14.62,-12.47 -29.06,-25 -43.59,-37.62 -14.45,-12.57 -28.83,-25.24 -43.22,-37.95 -14.38,-12.69 -28.77,-25.46 -43.1,-38.25 -74.28,-66.45 -147.71,-134.42 -220.22,-203.91 -72.05,-69 -143.11,-139.65 -213.18,-211.7 -69.78,-71.78 -138.49,-145.08 -206.1,-219.74 -67.37,-74.47 -133.7,-150.4 -198.85,-227.93 -9.25,-10.98 -18.38,-22.01 -27.52,-32.98 -9.16,-11.07 -18.27,-22.07 -27.35,-33.18 -9.08,-11.03 -18.16,-22.16 -27.21,-33.33 -9.02,-11.03 -18.04,-22.22 -27.03,-33.42 -8.93,-11 -17.89,-22.04 -26.82,-33.24 -8.88,-11.16 -17.7,-22.26 -26.6,-33.52 -8.85,-11.16 -17.64,-22.41 -26.42,-33.57 -8.79,-11.4 -17.52,-22.61 -26.22,-34 -1.31,-1.65 -2.64,-3.33 -3.98,-5.06 -1.3,-1.68 -2.58,-3.42 -3.85,-5.12 -1.34,-1.8 -2.64,-3.52 -3.92,-5.18 -1.31,-1.79 -2.67,-3.58 -3.97,-5.29 -7.23,-9.5 -14.45,-18.98 -21.75,-28.411 -7.14,-9.469 -14.45,-18.937 -21.61,-28.449 -7.17,-9.512 -14.39,-19.031 -21.55,-28.641 -7.17,-9.5 -14.27,-19.109 -21.44,-28.777 -8.23,-11.25 -16.56,-22.512 -24.8,-33.781 -8.23,-11.18 -16.41,-22.512 -24.59,-33.879 -8.29,-11.281 -16.36,-22.613 -24.57,-34.051 -8.18,-11.371 -16.27,-22.789 -24.45,-34.269 -0.78,-1.141 -1.65,-2.403 -2.52,-3.602 -0.84,-1.23 -1.68,-2.469 -2.61,-3.602 -0.87,-1.226 -1.74,-2.468 -2.61,-3.699 -0.84,-1.23 -1.65,-2.449 -2.52,-3.617 -42.15,-59.641 -83.5,-120.07 -124.31,-181.312 C 1006.91,512.582 966.805,450.52 927.445,387.641 888.086,324.789 849.484,261.09 811.547,196.512 773.582,131.922 736.367,66.3906 699.883,0 m -62.586,151.441 h -0.004 v 0 M 3319.97,2998.11 c 0,0 0,0 0.01,0 -0.01,-0.01 0,0 -0.01,0 m 215.08,107 c 0.4,0.2 0.8,0.39 1.21,0.59 -0.41,-0.2 -0.81,-0.4 -1.21,-0.59" transform="matrix(.13333 0 0 -.13333 0 653.333)" class="svgShape color000000-5 selectable"></path><path fill="#ffffff" d="M699.883 0c-.055.128906-.11.261719-.164.390625C677.941 53.0313 637.566 150.781 637.297 151.441c-.004 0-.004 0-.004 0v0 0 0L572.504 309.41C1477.95 1796.39 2789.42 2648.33 3319.97 2998.11v0c.01 0 0-.01.01 0 .45.22 142.35 71.72 215.07 107 .4.19.8.39 1.21.59v0c73.03 35.44 146.55 70.11 220.25 103.97 2.32 1.13 4.61 2.23 6.99 3.34 2.29 1.14 4.64 2.24 6.96 3.36 2.38 1.12 4.73 2.25 7.02 3.32 2.37 1.11 4.67 2.15 7.04 3.15 90.79 41.49 181.91 81.74 273.13 120.87 92.35 39.52 184.87 77.82 277.25 114.81 93.53 37.49 186.92 73.6 279.97 108.29 94.17 35.12 188.03 68.78 281.27 101-95.68-33.13-191.77-69.43-287.97-108.62-95.08-38.83-190.27-80.54-285.31-124.93-93.94-43.95-187.86-90.64-281.48-139.78-92.58-48.6-184.9-99.76-276.78-153.21-41.77-24.32-83.44-49.15-125.06-74.37-41.33-25.17-82.61-50.9-123.65-77.01-40.95-26.01-81.76-52.5-122.48-79.43-40.46-26.83-80.83-54.11-121.12-81.78-21.34-14.7-42.63-29.39-63.86-44.32-21.17-14.86-42.38-29.84-63.49-44.95-21.03-15.04-42.05-30.25-63.06-45.55-20.93-15.32-41.82-30.7-62.64-46.22-18.33-13.73-36.69-27.46-54.96-41.24-18.19-13.84-36.46-27.64-54.65-41.65-18.12-13.95-36.28-27.91-54.35-42.13-18.07-14.04-36.11-28.31-54.12-42.62-11.69-9.34-23.38-18.77-35.01-28.12-11.69-9.36-23.32-18.78-34.92-28.22-11.63-9.48-23.2-18.98-34.74-28.41-11.58-9.54-23.15-19.13-34.66-28.74-4.32-3.6-8.67-7.21-12.94-10.96-4.35-3.7-8.7-7.44-13.02-11.17-4.29-3.73-8.7-7.45-13.02-11.14-4.29-3.72-8.7-7.46-13.11-11.15-14.62-12.3-29.15-24.72-43.68-37.24-14.62-12.47-29.06-25-43.59-37.62-14.45-12.57-28.83-25.24-43.22-37.95-14.38-12.69-28.77-25.46-43.1-38.25-74.28-66.45-147.71-134.42-220.22-203.91-72.05-69-143.11-139.65-213.18-211.7-69.78-71.78-138.49-145.08-206.1-219.74-67.37-74.47-133.7-150.4-198.85-227.93-9.25-10.98-18.38-22.01-27.52-32.98-9.16-11.07-18.27-22.07-27.35-33.18-9.08-11.03-18.16-22.16-27.21-33.33-9.02-11.03-18.04-22.22-27.03-33.42-8.93-11-17.89-22.04-26.82-33.24-8.88-11.16-17.7-22.26-26.6-33.52-8.85-11.16-17.64-22.41-26.42-33.57-8.79-11.4-17.52-22.61-26.22-34-1.31-1.65-2.64-3.33-3.98-5.06-1.3-1.68-2.58-3.42-3.85-5.12-1.34-1.8-2.64-3.52-3.92-5.18-1.31-1.79-2.67-3.58-3.97-5.29-7.23-9.5-14.45-18.98-21.75-28.411-7.14-9.469-14.45-18.937-21.61-28.449-7.17-9.512-14.39-19.031-21.55-28.641-7.17-9.5-14.27-19.109-21.44-28.777-8.23-11.25-16.56-22.512-24.8-33.781-8.23-11.18-16.41-22.512-24.59-33.879-8.29-11.281-16.36-22.613-24.57-34.051-8.18-11.371-16.27-22.789-24.45-34.269-.78-1.141-1.65-2.403-2.52-3.602-.84-1.23-1.68-2.469-2.61-3.602-.87-1.226-1.74-2.468-2.61-3.699-.84-1.23-1.65-2.449-2.52-3.617-42.15-59.641-83.5-120.07-124.31-181.312C1006.91 512.582 966.805 450.52 927.445 387.641 888.086 324.789 849.484 261.09 811.547 196.512 773.582 131.922 736.367 66.3906 699.883 0M1448.44 3562.4l10.61 337.54c2.23 70.19 18.13 140.31 45.02 207.19 26.71 66.72 64.41 130.63 110.53 188.55 46.29 58.04 101.16 110.42 162.21 153.82 61.58 43.78 129.8 78.59 202.13 101 73.29 22.75 144.23 30.57 209.98 25.2 66.66-5.52 128.08-24.73 180.93-56.17 53.57-31.93 98.35-76.37 130.72-131.62 32.74-56.08 52.61-123.11 55.98-199.03l15.92-366.09zm2121.49 261.63c-3.46 31.33-14.1 59.38-30.37 83.36-16.13 23.93-37.73 43.65-63.29 58.46-25.31 14.74-54.58 24.55-86.08 28.67-31.26 4.11-64.85 2.61-99.33-5.41l-241.75-55.91-.4 5.87-80.87-18.78-26.16 370.03c-8.81 125.32-45.77 234.66-104.12 324.72-56.88 88-133.91 157.28-224.66 205.47-88.49 46.99-189.98 73.86-298.88 78.69-106.3 4.74-219.94-11.56-336.21-50.68-113.93-38.33-220.63-95.37-316.6-165.51-94.82-69.25-179.91-151.81-251.76-242.69-71.57-90.61-130.57-190.19-172.94-294.08-42.67-104.43-69-214.18-74.69-324.59l-16.64-324.42-50.15-11.62-.29-5.1-194.209-45.02c-22.336-5.12-43.855-15.14-63.722-28.72-19.836-13.62-38.024-30.75-53.625-50.48-15.606-19.64-28.715-41.86-38.461-65.35-9.657-23.61-15.981-48.64-17.953-73.87L593.762 1500.7l145.015-164.08 33.442 616.02c3.453 63.6 16.996 124.75 38.375 181.06 21.402 56.09 50.664 107.6 85.992 151.98 35.297 44.51 76.769 82.12 122.394 110.22 45.91 28.25 96.23 47.05 149.11 53.65l65.25 8.26c-26.53 8.65-50.81 22.05-72.21 39.44-21.32 17.24-39.71 38.44-54.62 62.85-14.88 24.24-26.22 51.75-33.56 81.63-7.24 29.77-10.55 61.98-9.22 96 1.77 43.89 10.97 86.67 26.14 126.54 15.08 39.79 36.16 76.83 61.77 109.28 25.58 32.52 55.75 60.52 89.1 82.17 33.5 21.77 70.19 37.11 108.79 44.26h.21.17l.17.06.18.01c38.92 7.15 76.11 5.12 110.04-4.74 34.22-9.89 65.2-27.8 91.3-52.22 26.34-24.67 47.65-56.01 62.36-92.62 14.94-36.81 23.06-78.94 22.82-124.85-.2-35.69-5.42-70.94-14.99-104.76-9.57-33.96-23.46-66.37-40.92-96.29-17.46-29.96-38.49-57.33-62.25-81.17-23.66-23.82-50-44.04-78.25-59.83l57.4 7.32c39.79 4.99 78.48 3.34 115.23-4.3 37.15-7.66 72.42-21.35 104.94-40.39 32.83-19.17 62.91-43.75 89.47-73.03 24.11-26.64 44.78-57.68 62.36-91.51 14.88 11.41 29.73 22.75 44.52 33.69l-2.38 202.25c-.52 47.3 7.66 93.18 22.86 135.86 15.22 42.57 37.5 81.99 65.26 116.46 27.81 34.47 61.22 63.94 98.61 86.56 37.61 22.78 79.29 38.53 123.7 45.28l54.52 8.36c-22.76 5.47-43.97 14.62-62.88 26.88-18.88 12.12-35.53 27.32-49.42 45.05-13.8 17.68-24.91 37.88-32.69 60.07-7.74 22.09-12.21 46.25-12.87 71.93-.81 33.03 4.81 65.54 15.72 96.07 10.85 30.51 27.03 59.08 47.22 84.31 20.21 25.28 44.63 47.21 71.98 64.36 27.47 17.28 57.95 29.73 90.38 36 32.71 6.25 64.18 5.49 93.27-1.15 29.32-6.7 56.1-19.43 79.15-37.25 23.15-17.86 42.44-40.78 56.44-67.76 14.07-27.14 22.77-58.41 24.63-92.6 1.39-26.58-1.34-52.95-7.81-78.4-6.43-25.38-16.56-49.84-29.78-72.51-13.17-22.69-29.44-43.58-48.12-61.95-18.62-18.4-39.73-34.23-62.59-46.86l47.63 7.09c25.26 3.86 50.17 4.76 74.28 2.99 24.27-1.85 47.82-6.36 70.47-13.37 22.6-7.09 44.26-16.62 64.54-28.48 20.42-11.95 39.41-26.17 56.84-42.4-5.39-3.09-10.58-6.46-15.86-9.53 6.73-.16 13.4-.26 20.1-.55 24.33 14.47 47.68 28.18 71.67 42.33l-5.98 90.01c-2.44 35.76 2.64 70.86 13.81 103.72 11.07 32.86 28.33 63.57 50.4 90.68 22.11 27.03 49.02 50.48 79.65 68.69 30.65 18.3 65.11 31.38 102.03 37.65l45.22 7.47c-19.17 3.61-37.18 10.11-53.45 19-16.28 8.91-30.81 20.14-43.16 33.49-12.3 13.29-22.33 28.57-29.73 45.47-7.4 16.86-12.07 35.35-13.63 55.08-2.03 25.52 1.48 50.79 9.48 74.58 8.01 23.75 20.51 46.14 36.63 65.97 16.13 19.89 35.85 37.19 58.3 50.87 22.51 13.77 47.65 23.85 74.74 29.06 27.06 5.18 53.43 5 77.96.28 24.57-4.85 47.25-14.38 66.94-27.7 19.78-13.45 36.4-30.78 48.79-51.31 12.41-20.59 20.53-44.3 23-70.39 2-20.25.52-40.3-4.06-59.72-4.5-19.39-12.04-38.14-22.16-55.61-10.18-17.51-22.89-33.68-37.68-48.02-14.7-14.42-31.52-26.9-50.03-36.92l38.61 6.55c22.62 3.76 44.78 4.92 66.33 3.63 21.63-1.32 42.49-5.01 62.47-10.91 19.87-5.97 38.87-14.09 56.44-24.27 5.48-3.19 10.47-6.77 15.66-10.33l.76.44c7.63 3.83 15.4 7.7 23.03 11.43 15.95 7.87 31.81 15.66 47.47 23.3 15.67 7.74 31.21 15.27 46.55 22.66l-53.62 484.79" transform="matrix(.13333 0 0 -.13333 0 653.333)" class="svgShape color000000-6 selectable"></path></svg></g></svg>