<svg id="Layer_1" data-name="Layer 1" xmlns="http://www.w3.org/2000/svg" xmlns:xlink="http://www.w3.org/1999/xlink" viewBox="0 0 88.51 100"><defs><style>.cls-1{fill:#d1d3d4;}.cls-2{opacity:0.57;fill:url(#Fading_Sky);}.cls-3{fill:#e6e7e8;}.cls-4{fill:#939598;}.cls-5{fill:#1b75bc;}.cls-6{fill:#fff;}.cls-7{fill:url(#Fading_Sky-2);}</style><linearGradient id="Fading_Sky" x1="18.55" y1="22.44" x2="69.79" y2="22.44" gradientUnits="userSpaceOnUse"><stop offset="0" stop-color="#2484c6"/><stop offset="1" stop-color="#2484c6" stop-opacity="0"/></linearGradient><linearGradient id="Fading_Sky-2" x1="27.43" y1="88.04" x2="59.14" y2="88.04" xlink:href="#Fading_Sky"/></defs><title>printer-icon</title><rect class="cls-1" x="2.27" y="39.44" width="83.73" height="47.34"/><polygon class="cls-2" points="18.55 4.55 69.79 40.34 69.79 4.55 18.55 4.55"/><polygon class="cls-3" points="18.74 41.67 69.79 85.5 81.41 87.78 86 84.46 86.24 72.15 84.96 41 81.41 39.44 65.22 38.65 18.55 39.44 18.74 41.67"/><path class="cls-4" d="M94.25,90.05H5.75V37.17h88.5Zm-84-4.54H89.71V41.71H10.29Z" transform="translate(-5.75)"/><rect class="cls-5" x="25.18" y="25.9" width="38.17" height="4.54"/><rect class="cls-5" x="25.18" y="14.49" width="38.17" height="4.54"/><rect class="cls-4" x="14.21" y="40.4" width="4.54" height="47.38"/><rect class="cls-4" x="69.76" y="40.34" width="4.54" height="47.38"/><rect class="cls-5" x="14.21" y="85.5" width="59.79" height="14.5"/><rect class="cls-6" x="18.76" y="85.5" width="51" height="9.38"/><rect class="cls-7" x="27.43" y="85.5" width="31.7" height="5.08"/><rect class="cls-4" x="16.49" y="74.12" width="55.54" height="4.54"/><path class="cls-5" d="M80.06,41.71H20V0H69.1l11,11ZM24.51,37.17h51V12.84l-8.3-8.3H24.51Z" transform="translate(-5.75)"/></svg>